<mxfile host="app.diagrams.net" modified="2023-02-21T06:44:33.457Z" agent="5.0 (Windows NT 10.0; Win64; x64) AppleWebKit/537.36 (KHTML, like Gecko) Chrome/107.0.0.0 Safari/537.36" etag="CZ58lI4wh0lrZE6hHuFQ" version="20.8.15" type="github">
  <diagram id="6a731a19-8d31-9384-78a2-239565b7b9f0" name="Page-1">
    <mxGraphModel dx="1393" dy="743" grid="1" gridSize="10" guides="1" tooltips="1" connect="1" arrows="1" fold="1" page="1" pageScale="1" pageWidth="1169" pageHeight="827" background="none" math="0" shadow="0">
      <root>
        <mxCell id="0" />
        <mxCell id="1" parent="0" />
        <mxCell id="7nTxj1oNSW2tffw1lcUE-1786" style="edgeStyle=orthogonalEdgeStyle;rounded=1;orthogonalLoop=1;jettySize=auto;html=1;fontSize=10;" edge="1" parent="1" source="7nTxj1oNSW2tffw1lcUE-1784" target="7nTxj1oNSW2tffw1lcUE-1785">
          <mxGeometry relative="1" as="geometry" />
        </mxCell>
        <mxCell id="7nTxj1oNSW2tffw1lcUE-1822" style="edgeStyle=orthogonalEdgeStyle;rounded=1;orthogonalLoop=1;jettySize=auto;html=1;" edge="1" parent="1" source="7nTxj1oNSW2tffw1lcUE-1784" target="7nTxj1oNSW2tffw1lcUE-1790">
          <mxGeometry relative="1" as="geometry" />
        </mxCell>
        <mxCell id="7nTxj1oNSW2tffw1lcUE-1784" value="&lt;p style=&quot;margin-top: 0pt; margin-bottom: 0pt; margin-left: 0in; direction: ltr; unicode-bidi: embed; word-break: normal;&quot;&gt;Định nghĩa về tài khoản chính&lt;/p&gt;" style="rounded=1;whiteSpace=wrap;html=1;fillColor=#d5e8d4;strokeColor=#82b366;" vertex="1" parent="1">
          <mxGeometry x="40" y="530" width="90" height="60" as="geometry" />
        </mxCell>
        <mxCell id="7nTxj1oNSW2tffw1lcUE-1789" style="edgeStyle=orthogonalEdgeStyle;rounded=1;orthogonalLoop=1;jettySize=auto;html=1;" edge="1" parent="1" source="7nTxj1oNSW2tffw1lcUE-1785" target="7nTxj1oNSW2tffw1lcUE-1788">
          <mxGeometry relative="1" as="geometry" />
        </mxCell>
        <mxCell id="7nTxj1oNSW2tffw1lcUE-1785" value="&lt;p style=&quot;margin-top: 0pt; margin-bottom: 0pt; margin-left: 0in; direction: ltr; unicode-bidi: embed; word-break: normal; font-size: 10px;&quot;&gt;&lt;/p&gt;&lt;div style=&quot;text-align: justify; font-size: 10px;&quot;&gt;&lt;span style=&quot;background-color: initial;&quot;&gt;&lt;font style=&quot;font-size: 10px;&quot;&gt;TKC = tài khoản có tổng ghi có trong&amp;nbsp;&lt;/font&gt;&lt;/span&gt;&lt;span style=&quot;background-color: initial;&quot;&gt;năm/Doanh thu &amp;gt; X&lt;/span&gt;&lt;/div&gt;&lt;font style=&quot;font-size: 10px;&quot;&gt;&lt;div style=&quot;text-align: justify;&quot;&gt;&lt;span style=&quot;background-color: initial; font-family: Arial;&quot;&gt;X phụ thuộc vào ngành nghề, địa phương,&amp;nbsp;&lt;/span&gt;&lt;span style=&quot;background-color: initial; font-family: Arial;&quot;&gt;quy mô DN&lt;/span&gt;&lt;/div&gt;&lt;/font&gt;&lt;p&gt;&lt;/p&gt;" style="rounded=1;whiteSpace=wrap;html=1;fillColor=#dae8fc;strokeColor=#6c8ebf;align=left;verticalAlign=middle;" vertex="1" parent="1">
          <mxGeometry x="185" y="480" width="140" height="70" as="geometry" />
        </mxCell>
        <mxCell id="7nTxj1oNSW2tffw1lcUE-1788" value="&lt;p style=&quot;margin-top: 0pt; margin-bottom: 0pt; margin-left: 0in; direction: ltr; unicode-bidi: embed; word-break: normal; font-size: 10px;&quot;&gt;&lt;/p&gt;&lt;div style=&quot;text-align: justify; font-size: 10px;&quot;&gt;&lt;div&gt;Thực hiện định nghĩa tài khoản chính dựa trên số liệu&lt;/div&gt;&lt;/div&gt;&lt;p&gt;&lt;/p&gt;" style="rounded=1;whiteSpace=wrap;html=1;fillColor=#ffe6cc;strokeColor=#d79b00;align=left;verticalAlign=top;horizontal=1;" vertex="1" parent="1">
          <mxGeometry x="375" y="470" width="140" height="40" as="geometry" />
        </mxCell>
        <mxCell id="7nTxj1oNSW2tffw1lcUE-1790" value="&lt;p style=&quot;margin-top: 0pt; margin-bottom: 0pt; margin-left: 0in; direction: ltr; unicode-bidi: embed; word-break: normal; font-size: 10px;&quot;&gt;&lt;/p&gt;&lt;div style=&quot;text-align: justify; font-size: 10px;&quot;&gt;&lt;p&gt;Khảo sát về định nghĩa tài khoản chính theo nhận định của DN, CBO&lt;/p&gt;&lt;/div&gt;&lt;p&gt;&lt;/p&gt;" style="rounded=1;whiteSpace=wrap;html=1;fillColor=#ffe6cc;strokeColor=#d79b00;align=left;verticalAlign=top;horizontal=1;" vertex="1" parent="1">
          <mxGeometry x="375" y="580" width="140" height="60" as="geometry" />
        </mxCell>
        <mxCell id="7nTxj1oNSW2tffw1lcUE-1795" style="edgeStyle=orthogonalEdgeStyle;rounded=1;orthogonalLoop=1;jettySize=auto;html=1;" edge="1" parent="1" source="7nTxj1oNSW2tffw1lcUE-1792" target="7nTxj1oNSW2tffw1lcUE-1794">
          <mxGeometry relative="1" as="geometry" />
        </mxCell>
        <mxCell id="7nTxj1oNSW2tffw1lcUE-1792" value="&lt;p style=&quot;margin-top: 0pt; margin-bottom: 0pt; margin-left: 0in; direction: ltr; unicode-bidi: embed; word-break: normal; font-size: 10px;&quot;&gt;&lt;/p&gt;&lt;div style=&quot;text-align: justify; font-size: 10px;&quot;&gt;&lt;p&gt;Các DN mới thành lập mở tài khoản tại TPBank, sẽ có TOI gia tăng theo thời gian DN sử dụng dịch vụ tại TPBank&lt;/p&gt;&lt;/div&gt;&lt;p&gt;&lt;/p&gt;" style="rounded=1;whiteSpace=wrap;html=1;fillColor=#dae8fc;strokeColor=#6c8ebf;align=left;verticalAlign=middle;" vertex="1" parent="1">
          <mxGeometry x="145" y="370" width="140" height="70" as="geometry" />
        </mxCell>
        <mxCell id="7nTxj1oNSW2tffw1lcUE-1794" value="&lt;p style=&quot;margin-top: 0pt; margin-bottom: 0pt; margin-left: 0in; direction: ltr; unicode-bidi: embed; word-break: normal; font-size: 10px;&quot;&gt;&lt;/p&gt;&lt;div style=&quot;text-align: justify; font-size: 10px;&quot;&gt;&lt;p style=&quot;language:en-US;margin-top:0pt;margin-bottom:0pt;margin-left:0in;&lt;br/&gt;text-align:center;direction:ltr;unicode-bidi:embed;mso-line-break-override:&lt;br/&gt;none;word-break:normal;punctuation-wrap:hanging&quot;&gt;Thực hiện phân tích TOI theo thời gian&lt;br/&gt;của tệp DN này, phân tích tỉ lệ TOI/tăng trưởng của DN (theo BCTC hoặc tổng ghi&lt;br/&gt;có) tại TPBank&lt;/p&gt;&lt;/div&gt;&lt;p&gt;&lt;/p&gt;" style="rounded=1;whiteSpace=wrap;html=1;fillColor=#ffe6cc;strokeColor=#d79b00;align=left;verticalAlign=middle;" vertex="1" parent="1">
          <mxGeometry x="345" y="360" width="140" height="70" as="geometry" />
        </mxCell>
        <mxCell id="7nTxj1oNSW2tffw1lcUE-1805" style="edgeStyle=orthogonalEdgeStyle;rounded=1;orthogonalLoop=1;jettySize=auto;html=1;" edge="1" parent="1" source="7nTxj1oNSW2tffw1lcUE-1796" target="7nTxj1oNSW2tffw1lcUE-1801">
          <mxGeometry relative="1" as="geometry">
            <Array as="points">
              <mxPoint x="370" y="155" />
              <mxPoint x="370" y="35" />
            </Array>
          </mxGeometry>
        </mxCell>
        <mxCell id="7nTxj1oNSW2tffw1lcUE-1806" style="edgeStyle=orthogonalEdgeStyle;rounded=1;orthogonalLoop=1;jettySize=auto;html=1;entryX=0;entryY=0.5;entryDx=0;entryDy=0;" edge="1" parent="1" source="7nTxj1oNSW2tffw1lcUE-1796" target="7nTxj1oNSW2tffw1lcUE-1798">
          <mxGeometry relative="1" as="geometry">
            <Array as="points">
              <mxPoint x="370" y="155" />
              <mxPoint x="370" y="85" />
            </Array>
          </mxGeometry>
        </mxCell>
        <mxCell id="7nTxj1oNSW2tffw1lcUE-1807" style="edgeStyle=orthogonalEdgeStyle;rounded=1;orthogonalLoop=1;jettySize=auto;html=1;" edge="1" parent="1" source="7nTxj1oNSW2tffw1lcUE-1796" target="7nTxj1oNSW2tffw1lcUE-1797">
          <mxGeometry relative="1" as="geometry" />
        </mxCell>
        <mxCell id="7nTxj1oNSW2tffw1lcUE-1809" style="edgeStyle=orthogonalEdgeStyle;rounded=1;orthogonalLoop=1;jettySize=auto;html=1;entryX=0;entryY=0.5;entryDx=0;entryDy=0;" edge="1" parent="1" source="7nTxj1oNSW2tffw1lcUE-1796" target="7nTxj1oNSW2tffw1lcUE-1799">
          <mxGeometry relative="1" as="geometry" />
        </mxCell>
        <mxCell id="7nTxj1oNSW2tffw1lcUE-1827" style="edgeStyle=orthogonalEdgeStyle;rounded=1;orthogonalLoop=1;jettySize=auto;html=1;" edge="1" parent="1" source="7nTxj1oNSW2tffw1lcUE-1796" target="7nTxj1oNSW2tffw1lcUE-1826">
          <mxGeometry relative="1" as="geometry" />
        </mxCell>
        <mxCell id="7nTxj1oNSW2tffw1lcUE-1796" value="&lt;p style=&quot;margin-top: 0pt; margin-bottom: 0pt; margin-left: 0in; direction: ltr; unicode-bidi: embed; word-break: normal; font-size: 10px;&quot;&gt;&lt;/p&gt;&lt;div style=&quot;text-align: justify; font-size: 10px;&quot;&gt;&lt;p&gt;TPBank chưa khai thác được tối đa dung lượng thị trường so với thứ bậc trên thị trường và lợi thế truyền thông&amp;nbsp;&lt;/p&gt;&lt;/div&gt;&lt;p&gt;&lt;/p&gt;" style="rounded=1;whiteSpace=wrap;html=1;fillColor=#dae8fc;strokeColor=#6c8ebf;align=left;verticalAlign=middle;" vertex="1" parent="1">
          <mxGeometry x="210" y="120" width="140" height="70" as="geometry" />
        </mxCell>
        <mxCell id="7nTxj1oNSW2tffw1lcUE-1797" value="&lt;p style=&quot;margin-top: 0pt; margin-bottom: 0pt; margin-left: 0in; direction: ltr; unicode-bidi: embed; word-break: normal; font-size: 10px;&quot;&gt;&lt;/p&gt;&lt;div style=&quot;text-align: justify; font-size: 10px;&quot;&gt;&lt;p&gt;Số liệu của các ngân hàng trong cùng thứ hạng (OCB, VIB,..)&lt;/p&gt;&lt;/div&gt;&lt;p&gt;&lt;/p&gt;" style="rounded=1;whiteSpace=wrap;html=1;fillColor=#ffe6cc;strokeColor=#d79b00;align=left;verticalAlign=middle;" vertex="1" parent="1">
          <mxGeometry x="410" y="160" width="140" height="70" as="geometry" />
        </mxCell>
        <mxCell id="7nTxj1oNSW2tffw1lcUE-1804" style="edgeStyle=orthogonalEdgeStyle;rounded=1;orthogonalLoop=1;jettySize=auto;html=1;" edge="1" parent="1" source="7nTxj1oNSW2tffw1lcUE-1798" target="7nTxj1oNSW2tffw1lcUE-1802">
          <mxGeometry relative="1" as="geometry" />
        </mxCell>
        <mxCell id="7nTxj1oNSW2tffw1lcUE-1798" value="&lt;p style=&quot;margin-top: 0pt; margin-bottom: 0pt; margin-left: 0in; direction: ltr; unicode-bidi: embed; word-break: normal; font-size: 10px;&quot;&gt;&lt;/p&gt;&lt;div style=&quot;text-align: justify; font-size: 10px;&quot;&gt;&lt;p style=&quot;language:en-US;margin-top:0pt;margin-bottom:0pt;margin-left:0in;&lt;br/&gt;text-align:center;direction:ltr;unicode-bidi:embed;mso-line-break-override:&lt;br/&gt;none;word-break:normal;punctuation-wrap:hanging&quot;&gt;Số liệu tại TPBank&lt;/p&gt;&lt;/div&gt;&lt;p&gt;&lt;/p&gt;" style="rounded=1;whiteSpace=wrap;html=1;fillColor=#e1d5e7;strokeColor=#9673a6;align=left;verticalAlign=middle;" vertex="1" parent="1">
          <mxGeometry x="410" y="70" width="140" height="30" as="geometry" />
        </mxCell>
        <mxCell id="7nTxj1oNSW2tffw1lcUE-1799" value="&lt;p style=&quot;margin-top: 0pt; margin-bottom: 0pt; margin-left: 0in; direction: ltr; unicode-bidi: embed; word-break: normal; font-size: 10px;&quot;&gt;&lt;/p&gt;&lt;div style=&quot;text-align: justify; font-size: 10px;&quot;&gt;&lt;p&gt;Số liệu của các ngân hàng thứ hạng cao hơn (VCB, TCB, VPB,..)&lt;br&gt;&lt;/p&gt;&lt;/div&gt;&lt;p&gt;&lt;/p&gt;" style="rounded=1;whiteSpace=wrap;html=1;fillColor=#ffe6cc;strokeColor=#d79b00;align=left;verticalAlign=middle;" vertex="1" parent="1">
          <mxGeometry x="410" y="240" width="140" height="70" as="geometry" />
        </mxCell>
        <mxCell id="7nTxj1oNSW2tffw1lcUE-1803" style="edgeStyle=orthogonalEdgeStyle;rounded=1;orthogonalLoop=1;jettySize=auto;html=1;" edge="1" parent="1" source="7nTxj1oNSW2tffw1lcUE-1801" target="7nTxj1oNSW2tffw1lcUE-1802">
          <mxGeometry relative="1" as="geometry" />
        </mxCell>
        <mxCell id="7nTxj1oNSW2tffw1lcUE-1801" value="&lt;p style=&quot;margin-top: 0pt; margin-bottom: 0pt; margin-left: 0in; direction: ltr; unicode-bidi: embed; word-break: normal; font-size: 10px;&quot;&gt;&lt;/p&gt;&lt;div style=&quot;text-align: justify; font-size: 10px;&quot;&gt;&lt;p&gt;Dung lượng thị trường&lt;/p&gt;&lt;/div&gt;&lt;p&gt;&lt;/p&gt;" style="rounded=1;whiteSpace=wrap;html=1;fillColor=#e1d5e7;strokeColor=#9673a6;align=left;verticalAlign=middle;" vertex="1" parent="1">
          <mxGeometry x="410" y="20" width="140" height="30" as="geometry" />
        </mxCell>
        <mxCell id="7nTxj1oNSW2tffw1lcUE-1802" value="&lt;p style=&quot;margin-top: 0pt; margin-bottom: 0pt; margin-left: 0in; direction: ltr; unicode-bidi: embed; word-break: normal; font-size: 10px;&quot;&gt;&lt;/p&gt;&lt;div style=&quot;text-align: justify; font-size: 10px;&quot;&gt;&lt;p&gt;Thị phần của TPBank&lt;/p&gt;&lt;/div&gt;&lt;p&gt;&lt;/p&gt;" style="rounded=1;whiteSpace=wrap;html=1;fillColor=#e1d5e7;strokeColor=#9673a6;align=left;verticalAlign=middle;" vertex="1" parent="1">
          <mxGeometry x="630" y="40" width="110" height="30" as="geometry" />
        </mxCell>
        <mxCell id="7nTxj1oNSW2tffw1lcUE-1814" style="edgeStyle=orthogonalEdgeStyle;rounded=1;orthogonalLoop=1;jettySize=auto;html=1;" edge="1" parent="1" source="7nTxj1oNSW2tffw1lcUE-1810" target="7nTxj1oNSW2tffw1lcUE-1813">
          <mxGeometry relative="1" as="geometry" />
        </mxCell>
        <mxCell id="7nTxj1oNSW2tffw1lcUE-1810" value="&lt;p style=&quot;margin-top: 0pt; margin-bottom: 0pt; margin-left: 0in; direction: ltr; unicode-bidi: embed; word-break: normal; font-size: 10px;&quot;&gt;&lt;/p&gt;&lt;div style=&quot;text-align: justify; font-size: 10px;&quot;&gt;&lt;p&gt;Tài khoản chính là tài khoản thành lập đầu tiên&lt;/p&gt;&lt;/div&gt;&lt;p&gt;&lt;/p&gt;" style="rounded=1;whiteSpace=wrap;html=1;fillColor=#dae8fc;strokeColor=#6c8ebf;align=left;verticalAlign=middle;" vertex="1" parent="1">
          <mxGeometry x="770" y="145" width="140" height="40" as="geometry" />
        </mxCell>
        <mxCell id="7nTxj1oNSW2tffw1lcUE-1815" style="edgeStyle=orthogonalEdgeStyle;rounded=1;orthogonalLoop=1;jettySize=auto;html=1;" edge="1" parent="1" source="7nTxj1oNSW2tffw1lcUE-1811" target="7nTxj1oNSW2tffw1lcUE-1813">
          <mxGeometry relative="1" as="geometry" />
        </mxCell>
        <mxCell id="7nTxj1oNSW2tffw1lcUE-1811" value="&lt;p style=&quot;margin-top: 0pt; margin-bottom: 0pt; margin-left: 0in; direction: ltr; unicode-bidi: embed; word-break: normal; font-size: 10px;&quot;&gt;&lt;/p&gt;&lt;div style=&quot;text-align: justify; font-size: 10px;&quot;&gt;&lt;p style=&quot;language:en-US;margin-top:0pt;margin-bottom:0pt;margin-left:0in;&lt;br/&gt;text-align:center;direction:ltr;unicode-bidi:embed;mso-line-break-override:&lt;br/&gt;none;word-break:normal;punctuation-wrap:hanging&quot;&gt;DN sử dụng &amp;gt; 2 tài khoản&lt;/p&gt;&lt;/div&gt;&lt;p&gt;&lt;/p&gt;" style="rounded=1;whiteSpace=wrap;html=1;fillColor=#dae8fc;strokeColor=#6c8ebf;align=left;verticalAlign=middle;" vertex="1" parent="1">
          <mxGeometry x="770" y="215" width="140" height="40" as="geometry" />
        </mxCell>
        <mxCell id="7nTxj1oNSW2tffw1lcUE-1816" style="edgeStyle=orthogonalEdgeStyle;rounded=1;orthogonalLoop=1;jettySize=auto;html=1;entryX=0;entryY=0.5;entryDx=0;entryDy=0;" edge="1" parent="1" source="7nTxj1oNSW2tffw1lcUE-1812" target="7nTxj1oNSW2tffw1lcUE-1813">
          <mxGeometry relative="1" as="geometry" />
        </mxCell>
        <mxCell id="7nTxj1oNSW2tffw1lcUE-1812" value="&lt;p style=&quot;margin-top: 0pt; margin-bottom: 0pt; margin-left: 0in; direction: ltr; unicode-bidi: embed; word-break: normal; font-size: 10px;&quot;&gt;&lt;/p&gt;&lt;div style=&quot;text-align: justify; font-size: 10px;&quot;&gt;&lt;p&gt;Tài khoản chính là tài khoản KH sử dụng đa số các dịch vụ tài chính&lt;/p&gt;&lt;/div&gt;&lt;p&gt;&lt;/p&gt;" style="rounded=1;whiteSpace=wrap;html=1;fillColor=#dae8fc;strokeColor=#6c8ebf;align=left;verticalAlign=middle;" vertex="1" parent="1">
          <mxGeometry x="780" y="275" width="140" height="40" as="geometry" />
        </mxCell>
        <mxCell id="7nTxj1oNSW2tffw1lcUE-1813" value="&lt;p style=&quot;margin-top: 0pt; margin-bottom: 0pt; margin-left: 0in; direction: ltr; unicode-bidi: embed; word-break: normal; font-size: 10px;&quot;&gt;&lt;/p&gt;&lt;div style=&quot;text-align: justify; font-size: 10px;&quot;&gt;&lt;p&gt;Thực hiện khảo sát KH qua ebank, tại quầy hoặc gọi điện, email&lt;/p&gt;&lt;/div&gt;&lt;p&gt;&lt;/p&gt;" style="rounded=1;whiteSpace=wrap;html=1;fillColor=#ffe6cc;strokeColor=#d79b00;align=left;verticalAlign=top;horizontal=1;" vertex="1" parent="1">
          <mxGeometry x="960" y="185" width="140" height="60" as="geometry" />
        </mxCell>
        <mxCell id="7nTxj1oNSW2tffw1lcUE-1820" style="edgeStyle=orthogonalEdgeStyle;rounded=1;orthogonalLoop=1;jettySize=auto;html=1;" edge="1" parent="1" source="7nTxj1oNSW2tffw1lcUE-1817" target="7nTxj1oNSW2tffw1lcUE-1818">
          <mxGeometry relative="1" as="geometry" />
        </mxCell>
        <mxCell id="7nTxj1oNSW2tffw1lcUE-1821" style="edgeStyle=orthogonalEdgeStyle;rounded=1;orthogonalLoop=1;jettySize=auto;html=1;entryX=0;entryY=0.5;entryDx=0;entryDy=0;" edge="1" parent="1" source="7nTxj1oNSW2tffw1lcUE-1817" target="7nTxj1oNSW2tffw1lcUE-1819">
          <mxGeometry relative="1" as="geometry" />
        </mxCell>
        <mxCell id="7nTxj1oNSW2tffw1lcUE-1817" value="&lt;p style=&quot;margin-top: 0pt; margin-bottom: 0pt; margin-left: 0in; direction: ltr; unicode-bidi: embed; word-break: normal; font-size: 10px;&quot;&gt;&lt;/p&gt;&lt;div style=&quot;text-align: justify; font-size: 10px;&quot;&gt;&lt;p style=&quot;language:en-US;margin-top:0pt;margin-bottom:0pt;margin-left:0in;&lt;br/&gt;text-align:center;direction:ltr;unicode-bidi:embed;mso-line-break-override:&lt;br/&gt;none;word-break:normal;punctuation-wrap:hanging&quot;&gt;Chi phí aqquire DN mới thành lập thấp hơn&lt;br/&gt;nhóm DN đang trong quá trình ổn định (1-3 năm tuổi) và ổn định (&amp;gt;3 năm tuổi)&lt;/p&gt;&lt;/div&gt;&lt;p&gt;&lt;/p&gt;" style="rounded=1;whiteSpace=wrap;html=1;fillColor=#dae8fc;strokeColor=#6c8ebf;align=left;verticalAlign=middle;" vertex="1" parent="1">
          <mxGeometry x="780" y="355" width="150" height="100" as="geometry" />
        </mxCell>
        <mxCell id="7nTxj1oNSW2tffw1lcUE-1818" value="&lt;p style=&quot;margin-top: 0pt; margin-bottom: 0pt; margin-left: 0in; direction: ltr; unicode-bidi: embed; word-break: normal; font-size: 10px;&quot;&gt;&lt;/p&gt;&lt;div style=&quot;text-align: justify; font-size: 10px;&quot;&gt;&lt;p style=&quot;language:en-US;margin-top:0pt;margin-bottom:0pt;margin-left:0in;&lt;br/&gt;text-align:center;direction:ltr;unicode-bidi:embed;mso-line-break-override:&lt;br/&gt;none;word-break:normal;punctuation-wrap:hanging&quot;&gt;Thực hiện khảo sát từ CBO, GĐCN về chi&lt;br/&gt;phí aqquire DN (có ghi nhận trên hệ thống, ghi nhận ngoài hệ thống, không ghi&lt;br/&gt;nhận cụ thể,..)&lt;/p&gt;&lt;/div&gt;&lt;p&gt;&lt;/p&gt;" style="rounded=1;whiteSpace=wrap;html=1;fillColor=#ffe6cc;strokeColor=#d79b00;align=left;verticalAlign=middle;" vertex="1" parent="1">
          <mxGeometry x="970" y="345" width="150" height="100" as="geometry" />
        </mxCell>
        <mxCell id="7nTxj1oNSW2tffw1lcUE-1819" value="&lt;p style=&quot;margin-top: 0pt; margin-bottom: 0pt; margin-left: 0in; direction: ltr; unicode-bidi: embed; word-break: normal; font-size: 10px;&quot;&gt;&lt;/p&gt;&lt;div style=&quot;text-align: justify; font-size: 10px;&quot;&gt;&lt;p style=&quot;language:en-US;margin-top:0pt;margin-bottom:0pt;margin-left:0in;&lt;br/&gt;text-align:center;direction:ltr;unicode-bidi:embed;mso-line-break-override:&lt;br/&gt;none;word-break:normal;punctuation-wrap:hanging&quot;&gt;Tính chi phí aqquire DN dựa trên dữ liệu&lt;/p&gt;&lt;/div&gt;&lt;p&gt;&lt;/p&gt;" style="rounded=1;whiteSpace=wrap;html=1;fillColor=#ffe6cc;strokeColor=#d79b00;align=left;verticalAlign=top;horizontal=1;" vertex="1" parent="1">
          <mxGeometry x="975" y="475" width="140" height="50" as="geometry" />
        </mxCell>
        <mxCell id="7nTxj1oNSW2tffw1lcUE-1823" value="&lt;p style=&quot;margin-top: 0pt; margin-bottom: 0pt; margin-left: 0in; direction: ltr; unicode-bidi: embed; word-break: normal; font-size: 10px;&quot;&gt;&lt;/p&gt;&lt;div style=&quot;text-align: justify; font-size: 10px;&quot;&gt;&lt;p&gt;Đang thực hiện&lt;/p&gt;&lt;/div&gt;&lt;p&gt;&lt;/p&gt;" style="rounded=1;whiteSpace=wrap;html=1;fillColor=#e1d5e7;strokeColor=#9673a6;align=left;verticalAlign=middle;" vertex="1" parent="1">
          <mxGeometry x="20" y="20" width="120" height="30" as="geometry" />
        </mxCell>
        <mxCell id="7nTxj1oNSW2tffw1lcUE-1824" value="&lt;p style=&quot;margin-top: 0pt; margin-bottom: 0pt; margin-left: 0in; direction: ltr; unicode-bidi: embed; word-break: normal; font-size: 10px;&quot;&gt;&lt;/p&gt;&lt;div style=&quot;text-align: justify; font-size: 10px;&quot;&gt;&lt;p&gt;Chưa thực hiện&lt;/p&gt;&lt;/div&gt;&lt;p&gt;&lt;/p&gt;" style="rounded=1;whiteSpace=wrap;html=1;fillColor=#ffe6cc;strokeColor=#d79b00;align=left;verticalAlign=middle;" vertex="1" parent="1">
          <mxGeometry x="20" y="70" width="120" height="30" as="geometry" />
        </mxCell>
        <mxCell id="7nTxj1oNSW2tffw1lcUE-1825" value="&lt;p style=&quot;margin-top: 0pt; margin-bottom: 0pt; margin-left: 0in; direction: ltr; unicode-bidi: embed; word-break: normal; font-size: 10px;&quot;&gt;&lt;/p&gt;&lt;div style=&quot;text-align: justify; font-size: 10px;&quot;&gt;&lt;p&gt;Giả thuyết cần kiểm định&lt;/p&gt;&lt;/div&gt;&lt;p&gt;&lt;/p&gt;" style="rounded=1;whiteSpace=wrap;html=1;fillColor=#dae8fc;strokeColor=#6c8ebf;align=left;verticalAlign=middle;" vertex="1" parent="1">
          <mxGeometry x="20" y="120" width="120" height="30" as="geometry" />
        </mxCell>
        <mxCell id="7nTxj1oNSW2tffw1lcUE-1826" value="&lt;p style=&quot;margin-top: 0pt; margin-bottom: 0pt; margin-left: 0in; direction: ltr; unicode-bidi: embed; word-break: normal; font-size: 10px;&quot;&gt;&lt;/p&gt;&lt;div style=&quot;text-align: justify; font-size: 10px;&quot;&gt;&lt;p&gt;Thứ bậc trên thị trường&lt;/p&gt;&lt;/div&gt;&lt;p&gt;&lt;/p&gt;" style="rounded=1;whiteSpace=wrap;html=1;fillColor=#e1d5e7;strokeColor=#9673a6;align=left;verticalAlign=middle;" vertex="1" parent="1">
          <mxGeometry x="410" y="115" width="140" height="30" as="geometry" />
        </mxCell>
        <mxCell id="7nTxj1oNSW2tffw1lcUE-1828" value="&lt;p style=&quot;margin-top: 0pt; margin-bottom: 0pt; margin-left: 0in; direction: ltr; unicode-bidi: embed; word-break: normal;&quot;&gt;Tăng SL KH&lt;/p&gt;" style="rounded=1;whiteSpace=wrap;html=1;fillColor=#d5e8d4;strokeColor=#82b366;" vertex="1" parent="1">
          <mxGeometry x="10" y="210" width="90" height="60" as="geometry" />
        </mxCell>
        <mxCell id="7nTxj1oNSW2tffw1lcUE-1829" value="&lt;p style=&quot;margin-top: 0pt; margin-bottom: 0pt; margin-left: 0in; direction: ltr; unicode-bidi: embed; word-break: normal;&quot;&gt;Tăng SL KH mở mới&lt;/p&gt;" style="rounded=1;whiteSpace=wrap;html=1;fillColor=#d5e8d4;strokeColor=#82b366;" vertex="1" parent="1">
          <mxGeometry x="120" y="180" width="90" height="60" as="geometry" />
        </mxCell>
        <mxCell id="7nTxj1oNSW2tffw1lcUE-1830" value="&lt;p style=&quot;margin-top: 0pt; margin-bottom: 0pt; margin-left: 0in; direction: ltr; unicode-bidi: embed; word-break: normal;&quot;&gt;Re-active KH cũ&lt;/p&gt;" style="rounded=1;whiteSpace=wrap;html=1;fillColor=#d5e8d4;strokeColor=#82b366;" vertex="1" parent="1">
          <mxGeometry x="120" y="260" width="90" height="60" as="geometry" />
        </mxCell>
      </root>
    </mxGraphModel>
  </diagram>
</mxfile>
